# xmcd CD database file
#
# Track frame offsets:
#	150
#	9438
#	23655
#	38379
#	51497
#	65876
#	75648
#	89893
#	104789
#	119556
#	135638
#	155494
#	168354
#	178716
#	190695
#
# Disc length: 2669 seconds
#
# Revision: 0
# Processed by: cddbd v1.5.2PL0 Copyright (c) Steve Scherf et al.
# Submitted via: CDex 1.40Release
#
DISCID=cd0a6b0f
DTITLE=Fiedel Joe and Co - First Time
DYEAR=1996
DGENRE=Country
TTITLE0=Wreck Of The Old 97
TTITLE1=Take Me Home Country Roads
TTITLE2=Mocking Bird
TTITLE3=Just Walk On By
TTITLE4=Help Me Make It Through The Night
TTITLE5=Begging To You
TTITLE6=San Antonio Rose
TTITLE7=Kaw-Liga
TTITLE8=Ich Möcht' So Gerne Mal Nach Nashville
TTITLE9=You're My Best Friend
TTITLE10=Orange Blossom Special
TTITLE11=Cold Cold Heart
TTITLE12=Lousiana Saturday Night
TTITLE13=I Did
TTITLE14=Ring Of Fire
EXTD=YEAR: 1996 ID3G: 2
EXTT0=
EXTT1=
EXTT2=
EXTT3=
EXTT4=
EXTT5=
EXTT6=
EXTT7=
EXTT8=
EXTT9=
EXTT10=
EXTT11=
EXTT12=
EXTT13=
EXTT14=
PLAYORDER=
